<svg id="svg" version="1.1" width="1000" height="261" xmlns="http://www.w3.org/2000/svg" xmlns:xlink="http://www.w3.org/1999/xlink" style="display: block;"><g id="svgg"><path id="path0" d="M398.572 0.445 C 398.433 0.670,398.044 0.749,397.709 0.620 C 397.373 0.492,396.896 0.539,396.649 0.726 C 395.923 1.275,391.734 2.130,391.247 1.829 C 391.001 1.677,390.800 1.773,390.800 2.043 C 390.800 2.313,390.682 2.415,390.537 2.270 C 390.392 2.125,390.057 2.187,389.793 2.406 C 389.528 2.626,388.308 2.876,387.082 2.963 C 385.856 3.050,384.690 3.221,384.492 3.343 C 384.295 3.465,383.518 3.669,382.766 3.796 C 382.015 3.922,380.803 4.218,380.074 4.453 C 379.344 4.687,378.399 4.788,377.974 4.677 C 377.549 4.566,377.093 4.649,376.962 4.861 C 376.831 5.074,376.336 5.202,375.862 5.146 C 375.388 5.091,374.370 5.256,373.600 5.513 C 372.830 5.770,371.435 6.030,370.501 6.090 C 369.566 6.151,368.801 6.328,368.801 6.485 C 368.800 6.642,368.035 6.785,367.100 6.802 C 364.725 6.846,363.434 7.008,362.916 7.328 C 362.672 7.479,362.186 7.493,361.836 7.359 C 361.486 7.224,361.200 7.308,361.200 7.545 C 361.200 7.940,360.295 8.044,357.000 8.028 C 356.072 8.023,355.936 8.112,356.400 8.418 C 356.848 8.713,356.595 8.816,355.400 8.825 C 352.114 8.849,350.593 9.010,350.338 9.362 C 350.194 9.561,349.076 9.771,347.855 9.828 C 346.633 9.885,345.491 10.014,345.317 10.114 C 345.143 10.214,344.685 10.246,344.300 10.184 C 343.915 10.122,343.600 10.212,343.600 10.385 C 343.600 10.558,343.195 10.704,342.700 10.709 C 341.793 10.717,337.095 11.328,331.000 12.229 C 330.120 12.359,328.680 12.530,327.800 12.609 C 326.920 12.688,324.940 12.948,323.400 13.187 C 321.860 13.426,319.610 13.705,318.400 13.807 C 317.190 13.909,315.281 14.182,314.158 14.413 C 313.034 14.644,311.504 14.827,310.758 14.820 C 310.011 14.812,308.320 14.912,307.000 15.041 C 305.680 15.169,304.015 15.289,303.300 15.307 C 302.585 15.325,302.000 15.470,302.000 15.629 C 302.000 15.888,300.305 16.033,295.934 16.147 C 295.127 16.169,294.560 16.334,294.672 16.516 C 294.784 16.697,293.734 16.836,292.338 16.824 C 289.092 16.795,285.729 17.050,282.220 17.591 C 280.691 17.827,278.441 18.021,277.220 18.023 C 273.235 18.029,271.274 18.194,271.467 18.509 C 271.572 18.678,271.150 18.793,270.529 18.764 C 269.104 18.696,258.002 19.215,255.600 19.461 C 254.610 19.563,251.820 19.726,249.400 19.825 C 246.980 19.924,243.290 20.121,241.200 20.264 C 227.733 21.182,171.261 21.170,159.000 20.247 C 157.020 20.098,153.714 19.980,151.654 19.984 C 149.594 19.988,147.722 19.875,147.494 19.735 C 147.266 19.594,146.072 19.435,144.840 19.381 C 130.064 18.739,127.705 18.587,126.000 18.170 C 125.450 18.035,123.949 17.939,122.664 17.956 C 121.380 17.973,119.130 17.801,117.664 17.575 C 114.368 17.065,110.914 16.800,107.896 16.824 C 106.629 16.834,105.369 16.703,105.096 16.533 C 104.597 16.222,103.878 16.142,100.200 15.988 C 99.100 15.942,98.034 15.806,97.831 15.686 C 97.628 15.566,96.908 15.417,96.231 15.355 C 95.554 15.294,94.010 15.153,92.800 15.043 C 91.590 14.932,89.745 14.841,88.700 14.841 C 87.655 14.840,86.800 14.695,86.800 14.519 C 86.800 14.208,86.399 14.154,83.000 14.007 C 82.120 13.969,80.500 13.770,79.400 13.566 C 77.259 13.168,74.663 12.832,72.400 12.661 C 71.630 12.602,70.550 12.437,70.000 12.294 C 69.450 12.151,67.765 11.934,66.255 11.813 C 64.745 11.691,63.348 11.491,63.150 11.369 C 62.786 11.144,58.393 10.676,57.100 10.724 C 56.715 10.739,56.400 10.617,56.400 10.455 C 56.400 10.165,55.685 10.076,52.692 9.992 C 51.862 9.969,51.272 9.807,51.380 9.633 C 51.488 9.458,51.131 9.401,50.588 9.504 C 50.045 9.608,49.599 9.537,49.599 9.347 C 49.598 9.156,48.294 8.954,46.701 8.899 C 45.107 8.843,43.173 8.586,42.402 8.328 C 41.631 8.069,40.505 7.893,39.900 7.935 C 39.295 7.978,38.800 7.835,38.800 7.619 C 38.800 7.402,38.539 7.325,38.219 7.448 C 37.900 7.571,37.414 7.532,37.141 7.363 C 36.867 7.194,35.553 6.989,34.221 6.907 C 32.890 6.826,31.170 6.559,30.400 6.314 C 29.630 6.069,28.550 5.830,28.000 5.784 C 27.450 5.737,25.830 5.489,24.400 5.231 C 22.970 4.974,21.280 4.675,20.645 4.566 C 20.010 4.458,19.200 4.219,18.845 4.037 C 18.490 3.854,17.885 3.755,17.500 3.817 C 17.115 3.879,16.800 3.755,16.800 3.541 C 16.800 3.327,16.644 3.249,16.453 3.367 C 16.043 3.620,9.798 2.570,9.089 2.129 C 8.820 1.962,8.195 1.877,7.700 1.941 C 7.205 2.005,6.800 1.894,6.800 1.694 C 6.800 1.495,6.064 1.302,5.164 1.267 C 4.264 1.232,3.330 1.081,3.088 0.931 C 2.846 0.781,2.052 0.619,1.324 0.570 L 0.000 0.482 0.000 52.441 L 0.000 104.400 200.000 104.400 L 400.000 104.400 400.000 52.443 C 400.000 -1.080,399.979 -1.832,398.572 0.445 " stroke="none" fill="#ed1c24" fill-rule="evenodd"></path><path id="path1" d="M394.000 1.218 C 393.562 1.515,393.724 1.552,394.600 1.356 C 396.071 1.027,396.390 0.798,395.367 0.806 C 394.945 0.809,394.330 0.995,394.000 1.218 M10.400 2.343 C 10.400 2.567,10.715 2.731,11.100 2.707 C 11.485 2.683,12.250 2.804,12.800 2.976 C 13.471 3.187,13.668 3.157,13.400 2.887 C 12.809 2.292,10.400 1.855,10.400 2.343 M387.884 2.480 C 387.589 2.668,387.820 2.790,388.476 2.794 C 389.068 2.797,389.657 2.631,389.785 2.424 C 390.056 1.986,388.594 2.029,387.884 2.480 M14.600 3.200 C 15.796 3.714,16.795 3.714,16.000 3.200 C 15.670 2.987,15.040 2.822,14.600 2.834 L 13.800 2.856 14.600 3.200 M378.000 4.435 C 378.000 4.636,378.390 4.800,378.867 4.800 C 379.343 4.800,379.608 4.675,379.455 4.522 C 379.023 4.089,378.000 4.029,378.000 4.435 M370.600 5.525 C 370.160 5.609,369.626 5.844,369.413 6.046 C 369.174 6.273,369.482 6.325,370.213 6.182 C 370.866 6.054,371.710 5.906,372.088 5.853 C 372.467 5.800,372.903 5.631,373.056 5.477 C 373.331 5.203,372.177 5.225,370.600 5.525 M30.347 6.107 C 30.848 6.608,33.338 6.947,33.046 6.475 C 32.915 6.262,32.176 6.015,31.404 5.925 C 30.614 5.832,30.152 5.912,30.347 6.107 M366.800 6.300 C 366.800 6.465,367.250 6.626,367.800 6.658 C 368.350 6.689,368.800 6.554,368.800 6.358 C 368.800 6.161,368.350 6.000,367.800 6.000 C 367.250 6.000,366.800 6.135,366.800 6.300 M38.800 7.515 C 38.800 7.688,39.160 7.857,39.600 7.890 C 40.040 7.923,40.400 7.781,40.400 7.575 C 40.400 7.369,40.040 7.200,39.600 7.200 C 39.160 7.200,38.800 7.342,38.800 7.515 M359.600 7.600 C 359.600 7.820,359.971 8.000,360.424 8.000 C 360.877 8.000,361.136 7.820,361.000 7.600 C 360.864 7.380,360.493 7.200,360.176 7.200 C 359.859 7.200,359.600 7.380,359.600 7.600 M49.600 9.210 C 49.600 9.424,49.915 9.623,50.300 9.651 C 50.685 9.679,51.409 9.745,51.910 9.797 C 52.410 9.849,52.901 9.761,52.999 9.601 C 53.098 9.441,52.779 9.341,52.290 9.378 C 51.800 9.416,50.995 9.305,50.500 9.133 C 49.968 8.948,49.600 8.979,49.600 9.210 M349.000 9.122 C 348.340 9.199,347.639 9.417,347.443 9.608 C 347.241 9.803,347.754 9.871,348.624 9.763 C 350.083 9.582,350.734 9.331,350.367 9.091 C 350.275 9.031,349.660 9.045,349.000 9.122 M341.200 10.400 L 340.200 10.720 341.300 10.760 C 341.905 10.782,342.400 10.620,342.400 10.400 C 342.400 10.180,342.355 10.018,342.300 10.040 C 342.245 10.062,341.750 10.224,341.200 10.400 M335.600 11.200 L 334.600 11.520 335.700 11.560 C 336.305 11.582,336.800 11.420,336.800 11.200 C 336.800 10.980,336.755 10.818,336.700 10.840 C 336.645 10.862,336.150 11.024,335.600 11.200 M332.600 11.610 C 331.423 11.919,331.428 11.924,332.874 11.882 C 333.685 11.859,334.259 11.696,334.151 11.520 C 334.042 11.344,333.918 11.221,333.876 11.247 C 333.834 11.273,333.260 11.436,332.600 11.610 M323.300 13.076 C 323.685 13.176,324.315 13.176,324.700 13.076 C 325.085 12.975,324.770 12.893,324.000 12.893 C 323.230 12.893,322.915 12.975,323.300 13.076 M80.200 13.600 C 80.336 13.820,80.932 13.997,81.524 13.994 C 82.366 13.989,82.469 13.903,82.000 13.600 C 81.210 13.089,79.884 13.089,80.200 13.600 M317.762 13.661 C 317.501 14.084,318.732 14.055,319.800 13.613 C 320.446 13.345,320.348 13.285,319.286 13.302 C 318.563 13.313,317.877 13.475,317.762 13.661 M311.600 14.315 C 311.600 14.488,311.960 14.657,312.400 14.690 C 312.840 14.723,313.200 14.581,313.200 14.375 C 313.200 14.169,312.840 14.000,312.400 14.000 C 311.960 14.000,311.600 14.142,311.600 14.315 M90.800 14.782 C 91.130 15.005,91.745 15.191,92.167 15.194 C 93.190 15.202,92.871 14.973,91.400 14.644 C 90.524 14.448,90.362 14.485,90.800 14.782 M104.945 16.278 C 105.377 16.711,106.400 16.771,106.400 16.365 C 106.400 16.164,106.010 16.000,105.533 16.000 C 105.057 16.000,104.792 16.125,104.945 16.278 M106.800 16.400 C 106.800 16.620,107.205 16.797,107.700 16.794 C 108.428 16.789,108.485 16.714,108.000 16.400 C 107.224 15.899,106.800 15.899,106.800 16.400 M291.800 16.393 C 291.220 16.638,291.533 16.726,292.940 16.714 C 294.175 16.703,294.684 16.573,294.340 16.355 C 293.679 15.936,292.856 15.948,291.800 16.393 M115.400 17.180 C 116.161 17.526,119.117 17.764,118.767 17.451 C 118.675 17.369,117.700 17.193,116.600 17.059 C 115.254 16.895,114.861 16.935,115.400 17.180 M282.800 17.200 L 281.800 17.520 282.900 17.560 C 283.505 17.582,284.000 17.420,284.000 17.200 C 284.000 16.980,283.955 16.818,283.900 16.840 C 283.845 16.862,283.350 17.024,282.800 17.200 M119.440 17.665 C 119.554 17.849,120.387 18.000,121.290 18.000 C 122.194 18.000,122.829 17.896,122.702 17.768 C 122.329 17.396,119.213 17.297,119.440 17.665 M277.200 17.612 C 275.873 17.902,275.898 17.917,277.700 17.884 C 278.745 17.866,279.600 17.704,279.600 17.525 C 279.600 17.159,279.205 17.173,277.200 17.612 M128.400 18.400 C 128.400 18.620,128.670 18.800,129.000 18.800 C 129.330 18.800,129.600 18.620,129.600 18.400 C 129.600 18.180,129.330 18.000,129.000 18.000 C 128.670 18.000,128.400 18.180,128.400 18.400 M268.057 18.356 C 267.675 18.598,267.825 18.700,268.565 18.700 C 269.142 18.700,269.712 18.543,269.831 18.350 C 270.109 17.901,268.769 17.905,268.057 18.356 M270.400 18.461 C 270.400 18.875,271.130 18.856,272.200 18.413 C 272.849 18.144,272.755 18.085,271.700 18.102 C 270.985 18.113,270.400 18.274,270.400 18.461 M132.400 18.558 C 132.400 18.645,133.120 18.785,134.000 18.869 C 134.880 18.952,135.600 18.881,135.600 18.711 C 135.600 18.540,134.880 18.400,134.000 18.400 C 133.120 18.400,132.400 18.471,132.400 18.558 M148.410 19.582 C 148.002 19.843,148.459 19.944,149.891 19.912 C 151.031 19.886,151.894 19.753,151.810 19.616 C 151.555 19.204,149.042 19.179,148.410 19.582 M247.735 19.628 C 247.331 19.773,248.260 19.892,249.800 19.893 C 251.854 19.895,252.349 19.803,251.657 19.545 C 250.642 19.167,248.921 19.204,247.735 19.628 M165.314 20.321 C 165.041 20.495,165.611 20.643,166.614 20.659 C 167.596 20.674,168.400 20.533,168.400 20.344 C 168.400 19.917,165.977 19.900,165.314 20.321 M168.990 20.384 C 169.132 20.613,169.717 20.800,170.290 20.800 C 171.544 20.800,171.399 20.608,169.866 20.240 C 169.123 20.062,168.821 20.111,168.990 20.384 M229.800 20.400 L 228.600 20.705 229.900 20.753 C 230.615 20.779,231.200 20.620,231.200 20.400 C 231.200 20.180,231.155 20.021,231.100 20.047 C 231.045 20.073,230.460 20.232,229.800 20.400 M231.600 20.400 C 231.600 20.620,231.870 20.800,232.200 20.800 C 232.530 20.800,232.800 20.620,232.800 20.400 C 232.800 20.180,232.530 20.000,232.200 20.000 C 231.870 20.000,231.600 20.180,231.600 20.400 M233.418 20.351 C 233.771 20.705,236.400 20.773,236.400 20.429 C 236.400 20.261,235.678 20.123,234.795 20.123 C 233.912 20.123,233.292 20.226,233.418 20.351 M207.907 21.090 C 208.626 21.179,209.706 21.177,210.307 21.086 C 210.908 20.995,210.320 20.922,209.000 20.924 C 207.680 20.926,207.188 21.001,207.907 21.090 " stroke="none" fill="#ed1b23" fill-rule="evenodd"></path><path id="path2" d="M198.500 21.091 C 199.325 21.178,200.675 21.178,201.500 21.091 C 202.325 21.005,201.650 20.934,200.000 20.934 C 198.350 20.934,197.675 21.005,198.500 21.091 " stroke="none" fill="#ed1b24" fill-rule="evenodd"></path><path id="path3" d="M65.462 11.500 C 65.360 11.665,65.709 11.800,66.238 11.800 C 66.767 11.800,67.200 11.665,67.200 11.500 C 67.200 11.335,66.851 11.200,66.424 11.200 C 65.997 11.200,65.564 11.335,65.462 11.500 M194.705 21.083 C 195.202 21.179,195.922 21.175,196.305 21.075 C 196.687 20.975,196.280 20.896,195.400 20.901 C 194.520 20.905,194.207 20.987,194.705 21.083 M203.905 21.083 C 204.402 21.179,205.122 21.175,205.505 21.075 C 205.887 20.975,205.480 20.896,204.600 20.901 C 203.720 20.905,203.407 20.987,203.905 21.083 " stroke="none" fill="#ee1b24" fill-rule="evenodd"></path></g></svg>